<?xml version="1.0" encoding="utf-8"?>
<!-- Generator: Adobe Illustrator 23.0.3, SVG Export Plug-In . SVG Version: 6.00 Build 0)  -->
<svg version="1.1" id="Layer_1" xmlns="http://www.w3.org/2000/svg" xmlns:xlink="http://www.w3.org/1999/xlink" x="0px" y="0px"
	 viewBox="0 0 50 50" style="enable-background:new 0 0 50 50;" xml:space="preserve">
<style type="text/css">
	.st0{fill:#2980B9;}
	.st1{fill:#037CC6;}
	.st2{fill:#9B59B6;}
	.st3{fill:#27AE60;}
	.st4{fill:#E74C3C;}
	.st5{fill:#34495E;}
	.st6{fill:#D35400;}
	.st7{fill:#E22D2D;}
	.st8{fill:#1ABC9C;}
	.st9{fill:#F39C12;}
	.st10{fill:#E67E22;}
	.st11{fill:url(#SVGID_1_);}
	.st12{fill:url(#SVGID_2_);}
	.st13{fill:url(#SVGID_3_);}
	.st14{fill:url(#SVGID_4_);}
	.st15{fill:url(#SVGID_5_);}
	.st16{fill:url(#SVGID_6_);}
	.st17{fill:url(#SVGID_7_);}
	.st18{fill:url(#SVGID_8_);}
	.st19{fill:url(#SVGID_9_);}
	.st20{fill:url(#SVGID_10_);}
	.st21{fill:url(#SVGID_11_);}
	.st22{fill:url(#SVGID_12_);}
	.st23{fill:url(#SVGID_13_);}
	.st24{fill:url(#SVGID_14_);}
	.st25{fill:url(#SVGID_15_);}
	.st26{fill:url(#SVGID_16_);}
	.st27{fill:url(#SVGID_17_);}
	.st28{fill:url(#SVGID_18_);}
	.st29{fill:url(#SVGID_19_);}
	.st30{fill:url(#SVGID_20_);}
	.st31{fill:url(#SVGID_21_);}
	.st32{fill:url(#SVGID_22_);}
	.st33{fill:url(#SVGID_23_);}
	.st34{fill:url(#SVGID_24_);}
	.st35{fill:url(#SVGID_25_);}
	.st36{fill:url(#SVGID_26_);}
	.st37{fill:url(#SVGID_27_);}
	.st38{fill:url(#SVGID_28_);}
	.st39{fill:url(#SVGID_29_);}
	.st40{fill:url(#SVGID_30_);}
	.st41{fill:url(#SVGID_31_);}
	.st42{fill:url(#SVGID_32_);}
	.st43{fill:#0C0C0C;}
	.st44{fill:none;stroke:#0C0C0C;stroke-width:2;stroke-linecap:round;stroke-linejoin:round;stroke-miterlimit:10;}
	.st45{fill:#FFFFFF;stroke:#0C0C0C;stroke-width:2;stroke-linecap:round;stroke-linejoin:round;stroke-miterlimit:10;}
	.st46{fill:#FB0101;}
	.st47{fill:url(#SVGID_33_);}
	.st48{fill:url(#SVGID_34_);}
	.st49{fill:#403D3D;}
	.st50{fill:#926DDE;}
	.st51{fill:#33CABB;}
</style>
<g>
	<g>
		<g>
			<linearGradient id="SVGID_1_" gradientUnits="userSpaceOnUse" x1="4.4706" y1="24.7361" x2="47.5293" y2="24.7361">
				<stop  offset="8.379889e-03" style="stop-color:#FB0101"/>
				<stop  offset="1" style="stop-color:#403D3D"/>
			</linearGradient>
			<path class="st11" d="M23.1,43.8h-5c-0.3,0-0.6-0.2-0.8-0.4c-0.2-0.3-0.2-0.6-0.1-0.9l5-13.9h-8.6l-4.3,5.2
				C9,34.1,8.4,34.2,8,33.9l-3-1.8c-0.4-0.3-0.6-0.8-0.4-1.3l2.9-6.1l-2.9-6.1c-0.2-0.5-0.1-1,0.4-1.3l3-1.8c0.4-0.3,1-0.2,1.3,0.2
				l4.3,5.2h8.6L17.2,7c-0.1-0.3-0.1-0.6,0.1-0.9c0.2-0.3,0.5-0.4,0.8-0.4h5c0.4,0,0.7,0.2,0.9,0.5l7.3,13.9h11.7
				c2.5,0,4.6,2.1,4.6,4.6c0,2.5-2.1,4.6-4.6,4.6H31.2L24,43.3C23.8,43.6,23.4,43.8,23.1,43.8z M19.5,41.8h2.9l7.3-13.9
				c0.2-0.3,0.5-0.5,0.9-0.5h12.3c1.4,0,2.6-1.2,2.6-2.6s-1.2-2.6-2.6-2.6H30.6c-0.4,0-0.7-0.2-0.9-0.5L22.5,7.6h-2.9l5,13.9
				c0.1,0.3,0.1,0.6-0.1,0.9c-0.2,0.3-0.5,0.4-0.8,0.4H13.1c-0.3,0-0.6-0.1-0.8-0.4l-4.1-4.9l-1.5,0.9l2.6,5.6
				c0.1,0.1,0.1,0.3,0.1,0.4v0.1c0,0.1,0,0.3-0.1,0.4l-2.6,5.6l1.5,0.9l4.1-4.9c0.2-0.2,0.5-0.4,0.8-0.4h10.5c0.3,0,0.6,0.2,0.8,0.4
				c0.2,0.3,0.2,0.6,0.1,0.9L19.5,41.8z"/>
		</g>
	</g>
</g>
</svg>
