<?xml version="1.0" encoding="UTF-8" standalone="no"?> <svg width="64" height="64" viewBox="0 0 64 64" fill="none" xmlns="http://www.w3.org/2000/svg">
<path d="M61 29.4798C60.9944 29.3872 60.9741 29.2961 60.94 29.2098C60.94 29.2098 60.94 29.1398 60.94 29.0998C60.9068 29.0442 60.87 28.9908 60.83 28.9398L60.72 28.7798L47.92 16.7798C47.8262 16.697 47.7176 16.6326 47.6 16.5898C47.5636 16.584 47.5264 16.584 47.49 16.5898C47.4103 16.5802 47.3297 16.5802 47.25 16.5898H37.75V14.0898C37.75 13.8246 37.6446 13.5703 37.4571 13.3827C37.2696 13.1952 37.0152 13.0898 36.75 13.0898H4C3.73478 13.0898 3.48043 13.1952 3.29289 13.3827C3.10536 13.5703 3 13.8246 3 14.0898V44.2498C3 44.5151 3.10536 44.7694 3.29289 44.957C3.48043 45.1445 3.73478 45.2498 4 45.2498H11.25C11.4844 46.8729 12.2957 48.3572 13.5354 49.4308C14.7751 50.5043 16.3601 51.0952 18 51.0952C19.6399 51.0952 21.2249 50.5043 22.4646 49.4308C23.7043 48.3572 24.5156 46.8729 24.75 45.2498H41.25C41.4844 46.8729 42.2957 48.3572 43.5354 49.4308C44.7751 50.5043 46.3601 51.0952 48 51.0952C49.6399 51.0952 51.2249 50.5043 52.4646 49.4308C53.7043 48.3572 54.5156 46.8729 54.75 45.2498H60C60.2652 45.2498 60.5196 45.1445 60.7071 44.957C60.8946 44.7694 61 44.5151 61 44.2498V29.4798ZM5 14.9198H35.67V43.2498H24.75C24.5156 41.6268 23.7043 40.1425 22.4646 39.0689C21.2249 37.9954 19.6399 37.4045 18 37.4045C16.3601 37.4045 14.7751 37.9954 13.5354 39.0689C12.2957 40.1425 11.4844 41.6268 11.25 43.2498H5V14.9198ZM18 49.0798C16.7233 49.0772 15.4993 48.5703 14.5946 47.6693C13.69 46.7684 13.1779 45.5466 13.17 44.2698V44.2698C13.17 42.9888 13.6789 41.7603 14.5847 40.8545C15.4905 39.9487 16.719 39.4398 18 39.4398C19.281 39.4398 20.5095 39.9487 21.4153 40.8545C22.3211 41.7603 22.83 42.9888 22.83 44.2698V44.2698C22.8221 45.5466 22.31 46.7684 21.4054 47.6693C20.5007 48.5703 19.2767 49.0772 18 49.0798V49.0798ZM48 49.0798C46.7233 49.0772 45.4993 48.5703 44.5946 47.6693C43.69 46.7684 43.1779 45.5466 43.17 44.2698V44.2698C43.17 42.9888 43.6789 41.7603 44.5847 40.8545C45.4905 39.9487 46.719 39.4398 48 39.4398C49.281 39.4398 50.5095 39.9487 51.4153 40.8545C52.3211 41.7603 52.83 42.9888 52.83 44.2698V44.2698C52.8221 45.5466 52.31 46.7684 51.4054 47.6693C50.5007 48.5703 49.2767 49.0772 48 49.0798V49.0798ZM54.75 43.2498C54.5156 41.6268 53.7043 40.1425 52.4646 39.0689C51.2249 37.9954 49.6399 37.4045 48 37.4045C46.3601 37.4045 44.7751 37.9954 43.5354 39.0689C42.2957 40.1425 41.4844 41.6268 41.25 43.2498H37.67V18.4198H46.77L59 29.9298V43.2498H54.75Z" fill="url(#paint0_linear_180_3436)"/>
<path d="M49.92 24.3399C49.8721 24.2286 49.8043 24.1269 49.72 24.0399V24.0399L46.28 20.5899C46.1858 20.4953 46.0736 20.4204 45.95 20.3699C45.8291 20.3221 45.7 20.2983 45.57 20.2999H40C39.7348 20.2999 39.4804 20.4052 39.2929 20.5928C39.1054 20.7803 39 21.0347 39 21.2999V34.0799C39 34.3451 39.1054 34.5994 39.2929 34.787C39.4804 34.9745 39.7348 35.0799 40 35.0799H49C49.2652 35.0799 49.5196 34.9745 49.7071 34.787C49.8946 34.5994 50 34.3451 50 34.0799V24.7299C50.0038 24.5954 49.9765 24.4619 49.92 24.3399V24.3399ZM45.15 22.2699L48 25.1399V33.0799H41V22.2699H45.15Z" fill="url(#paint1_linear_180_3436)"/>
<path d="M18 42.0898C17.6044 42.0898 17.2178 42.2071 16.8889 42.4269C16.56 42.6467 16.3036 42.959 16.1522 43.3245C16.0009 43.6899 15.9613 44.0921 16.0384 44.48C16.1156 44.868 16.3061 45.2244 16.5858 45.5041C16.8655 45.7838 17.2219 45.9742 17.6098 46.0514C17.9978 46.1286 18.3999 46.089 18.7654 45.9376C19.1308 45.7862 19.4432 45.5299 19.6629 45.201C19.8827 44.8721 20 44.4854 20 44.0898C20 43.5594 19.7893 43.0507 19.4142 42.6756C19.0391 42.3006 18.5304 42.0898 18 42.0898Z" fill="url(#paint2_linear_180_3436)"/>
<path d="M48 42.0898C47.6044 42.0898 47.2178 42.2071 46.8889 42.4269C46.56 42.6467 46.3036 42.959 46.1522 43.3245C46.0009 43.6899 45.9613 44.0921 46.0384 44.48C46.1156 44.868 46.3061 45.2244 46.5858 45.5041C46.8655 45.7838 47.2219 45.9742 47.6098 46.0514C47.9978 46.1286 48.3999 46.089 48.7654 45.9376C49.1308 45.7862 49.4432 45.5299 49.6629 45.201C49.8827 44.8721 50 44.4854 50 44.0898C50 43.5594 49.7893 43.0507 49.4142 42.6756C49.0391 42.3006 48.5304 42.0898 48 42.0898Z" fill="url(#paint3_linear_180_3436)"/>
<path d="M14 26.0801H17V29.0801C17 29.3453 17.1054 29.5996 17.2929 29.7872C17.4804 29.9747 17.7348 30.0801 18 30.0801C18.2652 30.0801 18.5196 29.9747 18.7071 29.7872C18.8946 29.5996 19 29.3453 19 29.0801V26.0801H22C22.2652 26.0801 22.5196 25.9747 22.7071 25.7872C22.8946 25.5996 23 25.3453 23 25.0801C23 24.8149 22.8946 24.5605 22.7071 24.373C22.5196 24.1854 22.2652 24.0801 22 24.0801H19V21.0801C19 20.8149 18.8946 20.5605 18.7071 20.373C18.5196 20.1854 18.2652 20.0801 18 20.0801C17.7348 20.0801 17.4804 20.1854 17.2929 20.373C17.1054 20.5605 17 20.8149 17 21.0801V24.0801H14C13.7348 24.0801 13.4804 24.1854 13.2929 24.373C13.1054 24.5605 13 24.8149 13 25.0801C13 25.3453 13.1054 25.5996 13.2929 25.7872C13.4804 25.9747 13.7348 26.0801 14 26.0801V26.0801Z" fill="url(#paint4_linear_180_3436)"/>
<defs>
<linearGradient id="paint0_linear_180_3436" x1="3" y1="31.9998" x2="61" y2="31.9998" gradientUnits="userSpaceOnUse">
<stop stop-color="#FD2411"/>
<stop offset="0.31" stop-color="#DE170C"/>
<stop offset="0.76" stop-color="#B70606"/>
<stop offset="1" stop-color="#A80004"/>
</linearGradient>
<linearGradient id="paint1_linear_180_3436" x1="468.014" y1="429.412" x2="589.018" y2="429.412" gradientUnits="userSpaceOnUse">
<stop stop-color="#FD2411"/>
<stop offset="0.31" stop-color="#DE170C"/>
<stop offset="0.76" stop-color="#B70606"/>
<stop offset="1" stop-color="#A80004"/>
</linearGradient>
<linearGradient id="paint2_linear_180_3436" x1="80" y1="218.41" x2="96" y2="218.41" gradientUnits="userSpaceOnUse">
<stop stop-color="#FD2411"/>
<stop offset="0.31" stop-color="#DE170C"/>
<stop offset="0.76" stop-color="#B70606"/>
<stop offset="1" stop-color="#A80004"/>
</linearGradient>
<linearGradient id="paint3_linear_180_3436" x1="230" y1="218.41" x2="246" y2="218.41" gradientUnits="userSpaceOnUse">
<stop stop-color="#FD2411"/>
<stop offset="0.31" stop-color="#DE170C"/>
<stop offset="0.76" stop-color="#B70606"/>
<stop offset="1" stop-color="#A80004"/>
</linearGradient>
<linearGradient id="paint4_linear_180_3436" x1="143" y1="270.88" x2="243" y2="270.88" gradientUnits="userSpaceOnUse">
<stop stop-color="#FD2411"/>
<stop offset="0.31" stop-color="#DE170C"/>
<stop offset="0.76" stop-color="#B70606"/>
<stop offset="1" stop-color="#A80004"/>
</linearGradient>
</defs>
</svg>
